<svg width="24" height="24" viewBox="0 0 24 24" fill="none" xmlns="http://www.w3.org/2000/svg">
<g clip-path="url(#clip0_22_32)">
<path d="M1.5 4.24182C2.8275 3.68682 4.731 3.08832 6.582 2.90232C8.577 2.70132 10.269 2.99682 11.25 4.03032V18.6493C9.8475 17.8543 8.07 17.7448 6.4305 17.9098C4.6605 18.0898 2.8755 18.6013 1.5 19.1263V4.24182ZM12.75 4.03032C13.731 2.99682 15.423 2.70132 17.418 2.90232C19.269 3.08832 21.1725 3.68682 22.5 4.24182V19.1263C21.123 18.6013 19.3395 18.0883 17.5695 17.9113C15.9285 17.7448 14.1525 17.8528 12.75 18.6493V4.03032ZM12 2.67432C10.5225 1.40382 8.3805 1.21482 6.4305 1.40982C4.1595 1.63932 1.8675 2.41782 0.4395 3.06732C0.308474 3.12691 0.197363 3.22295 0.119432 3.34397C0.0415 3.46499 3.98571e-05 3.60588 0 3.74982L0 20.2498C3.4743e-05 20.3753 0.0315557 20.4988 0.0916756 20.6089C0.151796 20.7191 0.238593 20.8124 0.344116 20.8803C0.44964 20.9482 0.570517 20.9886 0.695675 20.9976C0.820833 21.0067 0.946271 20.9843 1.0605 20.9323C2.3835 20.3323 4.515 19.6108 6.5805 19.4023C8.694 19.1893 10.4655 19.5328 11.415 20.7178C11.4853 20.8054 11.5743 20.8761 11.6756 20.9247C11.7768 20.9733 11.8877 20.9985 12 20.9985C12.1123 20.9985 12.2232 20.9733 12.3244 20.9247C12.4257 20.8761 12.5147 20.8054 12.585 20.7178C13.5345 19.5328 15.306 19.1893 17.418 19.4023C19.485 19.6108 21.618 20.3323 22.9395 20.9323C23.0537 20.9843 23.1792 21.0067 23.3043 20.9976C23.4295 20.9886 23.5504 20.9482 23.6559 20.8803C23.7614 20.8124 23.8482 20.7191 23.9083 20.6089C23.9684 20.4988 24 20.3753 24 20.2498V3.74982C24 3.60588 23.9585 3.46499 23.8806 3.34397C23.8026 3.22295 23.6915 3.12691 23.5605 3.06732C22.1325 2.41782 19.8405 1.63932 17.5695 1.40982C15.6195 1.21332 13.4775 1.40382 12 2.67432Z" fill="#4675EE"/>
</g>
<defs>
<clipPath id="clip0_22_32">
<rect width="24" height="24" fill="white"/>
</clipPath>
</defs>
</svg>
