<svg width="96" height="22" viewBox="0 0 96 22" fill="none" xmlns="http://www.w3.org/2000/svg">
<path d="M30.2157 15.4733C29.5376 15.4733 28.9246 15.3572 28.3766 15.1249C27.8379 14.8927 27.4106 14.5584 27.0948 14.1218C26.779 13.6853 26.6165 13.1698 26.6072 12.5753H28.697C28.7249 12.9747 28.8642 13.2905 29.115 13.5227C29.3751 13.7549 29.728 13.871 30.1739 13.871C30.629 13.871 30.9866 13.7642 31.2467 13.5506C31.5067 13.3277 31.6368 13.0397 31.6368 12.6868C31.6368 12.3988 31.5485 12.162 31.3721 11.9762C31.1956 11.7905 30.9727 11.6465 30.7033 11.5443C30.4432 11.4329 30.081 11.3121 29.6166 11.1821C28.985 10.9963 28.4695 10.8152 28.0701 10.6387C27.68 10.4529 27.3409 10.1789 27.053 9.8167C26.7744 9.44517 26.635 8.95289 26.635 8.33987C26.635 7.76399 26.779 7.26243 27.0669 6.83517C27.3549 6.40791 27.7589 6.08282 28.2791 5.8599C28.7992 5.62769 29.3937 5.51159 30.0624 5.51159C31.0655 5.51159 31.8783 5.75773 32.5006 6.25001C33.1322 6.733 33.4805 7.41104 33.5455 8.28414H31.3999C31.3813 7.94976 31.2374 7.67576 30.968 7.46213C30.7079 7.23921 30.3596 7.12775 29.9231 7.12775C29.5423 7.12775 29.2358 7.22527 29.0035 7.42033C28.7806 7.61538 28.6692 7.89867 28.6692 8.2702C28.6692 8.53028 28.7528 8.74855 28.92 8.92503C29.0964 9.09222 29.3101 9.23154 29.5608 9.343C29.8209 9.44517 30.1832 9.56592 30.6476 9.70524C31.2792 9.89101 31.7947 10.0768 32.1941 10.2625C32.5935 10.4483 32.9371 10.727 33.2251 11.0985C33.513 11.47 33.657 11.9576 33.657 12.5614C33.657 13.0815 33.5223 13.5645 33.2529 14.0104C32.9836 14.4562 32.5888 14.8138 32.0687 15.0832C31.5485 15.3432 30.9309 15.4733 30.2157 15.4733ZM36.3372 6.73764C35.9936 6.73764 35.7056 6.63083 35.4734 6.4172C35.2505 6.19428 35.139 5.92027 35.139 5.59518C35.139 5.27009 35.2505 5.00073 35.4734 4.7871C35.7056 4.56419 35.9936 4.45273 36.3372 4.45273C36.6809 4.45273 36.9642 4.56419 37.1871 4.7871C37.4193 5.00073 37.5354 5.27009 37.5354 5.59518C37.5354 5.92027 37.4193 6.19428 37.1871 6.4172C36.9642 6.63083 36.6809 6.73764 36.3372 6.73764ZM37.2986 7.65718V15.3757H35.348V7.65718H37.2986ZM46.3173 8.66031C46.3173 9.18046 46.1919 9.66809 45.9411 10.1232C45.6996 10.5783 45.3142 10.9452 44.7847 11.2239C44.2646 11.5025 43.6051 11.6418 42.8063 11.6418H41.1762V15.3757H39.2257V5.65091H42.8063C43.5587 5.65091 44.1996 5.78095 44.729 6.04102C45.2584 6.30109 45.6532 6.65869 45.9132 7.11382C46.1826 7.56894 46.3173 8.08444 46.3173 8.66031ZM42.7227 10.0675C43.2614 10.0675 43.6608 9.94674 43.9209 9.70524C44.181 9.45446 44.311 9.10615 44.311 8.66031C44.311 7.71291 43.7816 7.23921 42.7227 7.23921H41.1762V10.0675H42.7227ZM54.9888 7.65718V15.3757H53.0243V14.4005C52.7735 14.7348 52.4438 14.9996 52.0351 15.1946C51.6357 15.3804 51.1992 15.4733 50.7255 15.4733C50.1217 15.4733 49.5877 15.3479 49.1232 15.0971C48.6588 14.837 48.2919 14.4608 48.0226 13.9686C47.7625 13.467 47.6325 12.8725 47.6325 12.1852V7.65718H49.583V11.9066C49.583 12.5196 49.7363 12.9933 50.0428 13.3277C50.3493 13.6528 50.7673 13.8153 51.2967 13.8153C51.8354 13.8153 52.258 13.6528 52.5646 13.3277C52.8711 12.9933 53.0243 12.5196 53.0243 11.9066V7.65718H54.9888ZM59.867 15.5011C59.2354 15.5011 58.6688 15.3897 58.1672 15.1667C57.6657 14.9345 57.2663 14.6234 56.969 14.2333C56.6811 13.8432 56.5232 13.4113 56.4953 12.9376H58.4598C58.497 13.2348 58.6409 13.4809 58.8917 13.676C59.1518 13.871 59.4722 13.9686 59.8531 13.9686C60.2246 13.9686 60.5125 13.8943 60.7169 13.7456C60.9305 13.597 61.0373 13.4066 61.0373 13.1744C61.0373 12.9236 60.9073 12.7379 60.6472 12.6171C60.3964 12.4871 59.9924 12.3478 59.4351 12.1991C58.8592 12.0598 58.3855 11.9159 58.014 11.7672C57.6517 11.6186 57.3359 11.3911 57.0666 11.0846C56.8065 10.778 56.6765 10.3647 56.6765 9.84457C56.6765 9.41731 56.7972 9.0272 57.0387 8.67424C57.2895 8.32129 57.6424 8.04264 58.0976 7.8383C58.562 7.63396 59.1053 7.53179 59.7277 7.53179C60.6472 7.53179 61.381 7.76399 61.929 8.22841C62.477 8.68353 62.7789 9.3012 62.8346 10.0814H60.9676C60.9398 9.77491 60.8097 9.53341 60.5775 9.35693C60.3546 9.17117 60.0527 9.07828 59.6719 9.07828C59.319 9.07828 59.045 9.1433 58.8499 9.27334C58.6642 9.40337 58.5713 9.5845 58.5713 9.8167C58.5713 10.0768 58.7013 10.2765 58.9614 10.4158C59.2214 10.5458 59.6255 10.6805 60.1735 10.8198C60.7308 10.9592 61.1906 11.1031 61.5528 11.2517C61.915 11.4004 62.2262 11.6326 62.4863 11.9484C62.7556 12.2549 62.895 12.6636 62.9042 13.1744C62.9042 13.6202 62.7789 14.0196 62.5281 14.3726C62.2866 14.7256 61.9336 15.0042 61.4692 15.2085C61.0141 15.4036 60.48 15.5011 59.867 15.5011ZM66.7764 9.25941V12.9933C66.7764 13.2534 66.8367 13.4438 66.9575 13.5645C67.0875 13.676 67.3012 13.7317 67.5984 13.7317H68.504V15.3757H67.2779C65.6339 15.3757 64.8119 14.5769 64.8119 12.9794V9.25941H63.8924V7.65718H64.8119V5.74844H66.7764V7.65718H68.504V9.25941H66.7764ZM69.4053 11.4886C69.4053 10.7084 69.5586 10.0164 69.8651 9.41266C70.1809 8.80892 70.6035 8.34451 71.133 8.01942C71.6717 7.69433 72.2708 7.53179 72.9302 7.53179C73.5061 7.53179 74.0077 7.64789 74.4349 7.8801C74.8715 8.1123 75.2198 8.40489 75.4799 8.75784V7.65718H77.4443V15.3757H75.4799V14.2472C75.2291 14.6095 74.8808 14.9113 74.4349 15.1528C73.9984 15.385 73.4922 15.5011 72.9163 15.5011C72.2661 15.5011 71.6717 15.3339 71.133 14.9996C70.6035 14.6652 70.1809 14.1961 69.8651 13.5924C69.5586 12.9794 69.4053 12.2781 69.4053 11.4886ZM75.4799 11.5165C75.4799 11.0428 75.387 10.6387 75.2012 10.3043C75.0155 9.96067 74.7647 9.7006 74.4489 9.52412C74.1331 9.33836 73.7941 9.24547 73.4318 9.24547C73.0696 9.24547 72.7352 9.33371 72.4287 9.51019C72.1222 9.68667 71.8714 9.94674 71.6763 10.2904C71.4906 10.6248 71.3977 11.0242 71.3977 11.4886C71.3977 11.953 71.4906 12.3617 71.6763 12.7146C71.8714 13.0583 72.1222 13.323 72.4287 13.5088C72.7445 13.6946 73.0789 13.7874 73.4318 13.7874C73.7941 13.7874 74.1331 13.6992 74.4489 13.5227C74.7647 13.337 75.0155 13.0769 75.2012 12.7425C75.387 12.3988 75.4799 11.9902 75.4799 11.5165ZM83.9192 15.3757L81.2999 12.0877V15.3757H79.3494V5.06575H81.2999V10.9313L83.8914 7.65718H86.427L83.0275 11.5304L86.4549 15.3757H83.9192ZM86.9841 11.4886C86.9841 10.7084 87.1374 10.0164 87.4439 9.41266C87.7597 8.80892 88.1823 8.34451 88.7117 8.01942C89.2505 7.69433 89.8496 7.53179 90.509 7.53179C91.0849 7.53179 91.5865 7.64789 92.0137 7.8801C92.4503 8.1123 92.7986 8.40489 93.0587 8.75784V7.65718H95.0231V15.3757H93.0587V14.2472C92.8079 14.6095 92.4596 14.9113 92.0137 15.1528C91.5772 15.385 91.071 15.5011 90.4951 15.5011C89.8449 15.5011 89.2505 15.3339 88.7117 14.9996C88.1823 14.6652 87.7597 14.1961 87.4439 13.5924C87.1374 12.9794 86.9841 12.2781 86.9841 11.4886ZM93.0587 11.5165C93.0587 11.0428 92.9658 10.6387 92.78 10.3043C92.5942 9.96067 92.3435 9.7006 92.0277 9.52412C91.7119 9.33836 91.3728 9.24547 91.0106 9.24547C90.6483 9.24547 90.314 9.33371 90.0075 9.51019C89.7009 9.68667 89.4502 9.94674 89.2551 10.2904C89.0693 10.6248 88.9765 11.0242 88.9765 11.4886C88.9765 11.953 89.0693 12.3617 89.2551 12.7146C89.4502 13.0583 89.7009 13.323 90.0075 13.5088C90.3233 13.6946 90.6576 13.7874 91.0106 13.7874C91.3728 13.7874 91.7119 13.6992 92.0277 13.5227C92.3435 13.337 92.5942 13.0769 92.78 12.7425C92.9658 12.3988 93.0587 11.9902 93.0587 11.5165Z" fill="black"/>
<path d="M1.40606 3.38442C1.40606 3.20199 1.57163 3.06432 1.751 3.0976L7.91711 4.24179C8.05534 4.26744 8.1556 4.38803 8.1556 4.52861V17.7375C8.1556 17.9199 7.99004 18.0576 7.81067 18.0243L1.64456 16.8801C1.50633 16.8545 1.40606 16.7339 1.40606 16.5933V3.38442Z" stroke="#4675EE" stroke-width="1.52386"/>
<path d="M17.2977 3.38442C17.2977 3.20199 17.1321 3.06432 16.9528 3.0976L10.7867 4.24179C10.6484 4.26744 10.5482 4.38803 10.5482 4.52861V17.7375C10.5482 17.9199 10.7137 18.0576 10.8931 18.0243L17.0592 16.8801C17.1974 16.8545 17.2977 16.7339 17.2977 16.5933V3.38442Z" stroke="#4675EE" stroke-width="1.52386"/>
<path d="M10.4068 3.61645C10.4068 3.04496 9.94377 2.58168 9.37261 2.58168C8.80145 2.58168 8.33843 3.04496 8.33843 3.61645" stroke="#4675EE" stroke-width="1.52386"/>
<path d="M10.4068 18.498C10.4068 19.0695 9.94377 19.5328 9.37261 19.5328C8.80145 19.5328 8.33843 19.0695 8.33843 18.498" stroke="#4675EE" stroke-width="1.52386"/>
</svg>
