<svg width="415" height="413" viewBox="0 0 415 413" fill="none" xmlns="http://www.w3.org/2000/svg">
<path d="M28.4745 13.1415L176.01 39.9661C183.898 41.4002 189.631 48.2704 189.631 56.2877V363.964C189.631 374.314 180.258 382.137 170.075 380.286L22.5394 353.461C14.6514 352.027 8.91772 345.157 8.91772 337.14V29.4631C8.91772 19.113 18.2914 11.29 28.4745 13.1415Z" stroke="#4675EE" stroke-width="16"/>
<path d="M387.443 13.1415L239.908 39.9661C232.02 41.4002 226.286 48.2704 226.286 56.2877V363.964C226.286 374.314 235.66 382.137 245.843 380.286L393.378 353.461C401.266 352.027 407 345.157 407 337.14V29.4631C407 19.113 397.626 11.29 387.443 13.1415Z" stroke="#4675EE" stroke-width="16"/>
<path d="M233.041 39.9261C233.041 26.6121 222.032 15.819 208.451 15.819C194.871 15.819 183.862 26.6121 183.862 39.9261" stroke="#4675EE" stroke-width="16"/>
<path d="M233.041 380.625C233.041 393.939 222.032 404.732 208.451 404.732C194.871 404.732 183.862 393.939 183.862 380.625" stroke="#4675EE" stroke-width="16"/>
</svg>
