<svg width="24" height="24" viewBox="0 0 24 24" fill="none" xmlns="http://www.w3.org/2000/svg">
<path d="M11.25 1.5V12H12.75V1.5H11.25Z" fill="#F24747"/>
<path d="M4.5 13.2182C4.49963 11.8787 4.85812 10.5635 5.53817 9.40941C6.21823 8.25533 7.19502 7.30448 8.367 6.65574L7.6395 5.34474C5.90029 6.30784 4.52891 7.81971 3.73946 9.64431C2.95001 11.4689 2.78692 13.5036 3.27564 15.4306C3.76437 17.3577 4.87741 19.0687 6.441 20.2965C8.00459 21.5244 9.93072 22.2 11.9187 22.2178C13.9067 22.2356 15.8447 21.5947 17.43 20.3951C19.0154 19.1955 20.1589 17.5048 20.6822 15.5868C21.2054 13.6688 21.0788 11.6316 20.3223 9.7931C19.5657 7.95462 18.2216 6.41839 16.5 5.42424L15.7485 6.72174C16.8888 7.37977 17.8359 8.32638 18.4944 9.46644C19.1529 10.6065 19.4998 11.8998 19.5 13.2164C19.5002 14.533 19.1539 15.8264 18.4958 16.9667C17.8377 18.107 16.891 19.054 15.7509 19.7124C14.6108 20.3709 13.3175 20.7176 12.0009 20.7178C10.6843 20.718 9.39092 20.3715 8.25066 19.7134C7.1104 19.0552 6.16349 18.1085 5.50511 16.9683C4.84673 15.8282 4.50008 14.5348 4.5 13.2182V13.2182Z" fill="#F24747"/>
</svg>
