<svg width="25" height="24" viewBox="0 0 25 24" fill="none" xmlns="http://www.w3.org/2000/svg">
<path fill-rule="evenodd" clip-rule="evenodd" d="M15.5 11.7509C15.5 11.552 15.579 11.3613 15.7197 11.2206C15.8603 11.08 16.0511 11.0009 16.25 11.0009H21.9395L20.219 9.28195C20.0782 9.14112 19.9991 8.95011 19.9991 8.75095C19.9991 8.55178 20.0782 8.36077 20.219 8.21994C20.3598 8.07911 20.5508 8 20.75 8C20.9492 8 21.1402 8.07911 21.281 8.21994L24.281 11.2199C24.3508 11.2896 24.4063 11.3724 24.4441 11.4635C24.4819 11.5546 24.5013 11.6523 24.5013 11.7509C24.5013 11.8496 24.4819 11.9473 24.4441 12.0384C24.4063 12.1295 24.3508 12.2123 24.281 12.2819L21.281 15.2819C21.2113 15.3517 21.1285 15.407 21.0374 15.4447C20.9463 15.4825 20.8486 15.5019 20.75 15.5019C20.6514 15.5019 20.5537 15.4825 20.4626 15.4447C20.3715 15.407 20.2887 15.3517 20.219 15.2819C20.0782 15.1411 19.9991 14.9501 19.9991 14.7509C19.9991 14.6523 20.0185 14.5547 20.0562 14.4636C20.094 14.3725 20.1493 14.2897 20.219 14.2199L21.9395 12.5009L16.25 12.5009C16.0511 12.5009 15.8603 12.4219 15.7197 12.2813C15.579 12.1406 15.5 11.9499 15.5 11.7509Z" fill="#4675EE"/>
<path d="M18 0H3C2.20435 0 1.44129 0.316071 0.878681 0.87868C0.316072 1.44129 0 2.20435 0 3V21C0 21.7957 0.316072 22.5587 0.878681 23.1213C1.44129 23.6839 2.20435 24 3 24H18C18.7956 24 19.5587 23.6839 20.1213 23.1213C20.6839 22.5587 21 21.7957 21 21V17.5H19.5V21C19.5 21.3978 19.342 21.7794 19.0607 22.0607C18.7794 22.342 18.3978 22.5 18 22.5H3C2.60217 22.5 2.22065 22.342 1.93934 22.0607C1.65804 21.7794 1.5 21.3978 1.5 21V3C1.5 2.60218 1.65804 2.22064 1.93934 1.93934C2.22065 1.65804 2.60217 1.5 3 1.5H18C18.3978 1.5 18.7794 1.65804 19.0607 1.93934C19.342 2.22064 19.5 2.60218 19.5 3V6.5H21V3C21 2.20435 20.6839 1.44129 20.1213 0.87868C19.5587 0.316071 18.7956 0 18 0Z" fill="#4675EE"/>
<path d="M4.5 1V22.5" stroke="#4675EE" stroke-width="1.5"/>
<mask id="path-4-inside-1_10_307" fill="white">
<rect x="6.5" y="5" width="9" height="4" rx="1"/>
</mask>
<rect x="6.5" y="5" width="9" height="4" rx="1" stroke="#4675EE" stroke-width="3" mask="url(#path-4-inside-1_10_307)"/>
</svg>
