<svg width="25" height="24" viewBox="0 0 25 24" fill="none" xmlns="http://www.w3.org/2000/svg">
<path fill-rule="evenodd" clip-rule="evenodd" d="M24.5013 11.7509C24.5013 11.552 24.4223 11.3613 24.2817 11.2206C24.141 11.08 23.9503 11.0009 23.7513 11.0009H18.0618L19.7823 9.28195C19.9232 9.14112 20.0023 8.95011 20.0023 8.75095C20.0023 8.55178 19.9232 8.36077 19.7823 8.21994C19.6415 8.07911 19.4505 8 19.2513 8C19.0522 8 18.8612 8.07911 18.7203 8.21994L15.7203 11.2199C15.6505 11.2896 15.5951 11.3724 15.5573 11.4635C15.5195 11.5546 15.5 11.6523 15.5 11.7509C15.5 11.8496 15.5195 11.9473 15.5573 12.0384C15.5951 12.1295 15.6505 12.2123 15.7203 12.2819L18.7203 15.2819C18.7901 15.3517 18.8729 15.407 18.964 15.4447C19.0551 15.4825 19.1527 15.5019 19.2513 15.5019C19.35 15.5019 19.4476 15.4825 19.5387 15.4447C19.6298 15.407 19.7126 15.3517 19.7823 15.2819C19.9232 15.1411 20.0023 14.9501 20.0023 14.7509C20.0023 14.6523 19.9829 14.5547 19.9451 14.4636C19.9074 14.3725 19.8521 14.2897 19.7823 14.2199L18.0618 12.5009L23.7513 12.5009C23.9503 12.5009 24.141 12.4219 24.2817 12.2813C24.4223 12.1406 24.5013 11.9499 24.5013 11.7509Z" fill="#4675EE"/>
<path d="M18 0H3C2.20435 0 1.44129 0.316071 0.878681 0.87868C0.316072 1.44129 0 2.20435 0 3V21C0 21.7957 0.316072 22.5587 0.878681 23.1213C1.44129 23.6839 2.20435 24 3 24H18C18.7956 24 19.5587 23.6839 20.1213 23.1213C20.6839 22.5587 21 21.7957 21 21V17.5H19.5V21C19.5 21.3978 19.342 21.7794 19.0607 22.0607C18.7794 22.342 18.3978 22.5 18 22.5H3C2.60217 22.5 2.22065 22.342 1.93934 22.0607C1.65804 21.7794 1.5 21.3978 1.5 21V3C1.5 2.60218 1.65804 2.22064 1.93934 1.93934C2.22065 1.65804 2.60217 1.5 3 1.5H18C18.3978 1.5 18.7794 1.65804 19.0607 1.93934C19.342 2.22064 19.5 2.60218 19.5 3V6.5H21V3C21 2.20435 20.6839 1.44129 20.1213 0.87868C19.5587 0.316071 18.7956 0 18 0Z" fill="#4675EE"/>
<path d="M4.5 1V22.5" stroke="#4675EE" stroke-width="1.5"/>
<mask id="path-4-inside-1_10_294" fill="white">
<rect x="6.5" y="5" width="9" height="4" rx="1"/>
</mask>
<rect x="6.5" y="5" width="9" height="4" rx="1" stroke="#4675EE" stroke-width="3" mask="url(#path-4-inside-1_10_294)"/>
</svg>
