<svg width="132" height="32" viewBox="0 0 132 32" fill="none" xmlns="http://www.w3.org/2000/svg">
<path d="M45.58 22.126C44.704 22.126 43.912 21.976 43.204 21.676C42.508 21.376 41.956 20.944 41.548 20.38C41.14 19.816 40.93 19.15 40.918 18.382H43.618C43.654 18.898 43.834 19.306 44.158 19.606C44.494 19.906 44.95 20.056 45.526 20.056C46.114 20.056 46.576 19.918 46.912 19.642C47.248 19.354 47.416 18.982 47.416 18.526C47.416 18.154 47.302 17.848 47.074 17.608C46.846 17.368 46.558 17.182 46.21 17.05C45.874 16.906 45.406 16.75 44.806 16.582C43.99 16.342 43.324 16.108 42.808 15.88C42.304 15.64 41.866 15.286 41.494 14.818C41.134 14.338 40.954 13.702 40.954 12.91C40.954 12.166 41.14 11.518 41.512 10.966C41.884 10.414 42.406 9.994 43.078 9.706C43.75 9.406 44.518 9.256 45.382 9.256C46.678 9.256 47.728 9.574 48.532 10.21C49.348 10.834 49.798 11.71 49.882 12.838H47.11C47.086 12.406 46.9 12.052 46.552 11.776C46.216 11.488 45.766 11.344 45.202 11.344C44.71 11.344 44.314 11.47 44.014 11.722C43.726 11.974 43.582 12.34 43.582 12.82C43.582 13.156 43.69 13.438 43.906 13.666C44.134 13.882 44.41 14.062 44.734 14.206C45.07 14.338 45.538 14.494 46.138 14.674C46.954 14.914 47.62 15.154 48.136 15.394C48.652 15.634 49.096 15.994 49.468 16.474C49.84 16.954 50.026 17.584 50.026 18.364C50.026 19.036 49.852 19.66 49.504 20.236C49.156 20.812 48.646 21.274 47.974 21.622C47.302 21.958 46.504 22.126 45.58 22.126ZM53.4888 10.84C53.0448 10.84 52.6728 10.702 52.3728 10.426C52.0848 10.138 51.9408 9.784 51.9408 9.364C51.9408 8.944 52.0848 8.596 52.3728 8.32C52.6728 8.032 53.0448 7.888 53.4888 7.888C53.9328 7.888 54.2988 8.032 54.5868 8.32C54.8868 8.596 55.0368 8.944 55.0368 9.364C55.0368 9.784 54.8868 10.138 54.5868 10.426C54.2988 10.702 53.9328 10.84 53.4888 10.84ZM54.7308 12.028V22H52.2108V12.028H54.7308ZM66.3825 13.324C66.3825 13.996 66.2205 14.626 65.8965 15.214C65.5845 15.802 65.0865 16.276 64.4025 16.636C63.7305 16.996 62.8785 17.176 61.8465 17.176H59.7405V22H57.2205V9.436H61.8465C62.8185 9.436 63.6465 9.604 64.3305 9.94C65.0145 10.276 65.5245 10.738 65.8605 11.326C66.2085 11.914 66.3825 12.58 66.3825 13.324ZM61.7385 15.142C62.4345 15.142 62.9505 14.986 63.2865 14.674C63.6225 14.35 63.7905 13.9 63.7905 13.324C63.7905 12.1 63.1065 11.488 61.7385 11.488H59.7405V15.142H61.7385ZM77.5857 12.028V22H75.0477V20.74C74.7237 21.172 74.2977 21.514 73.7697 21.766C73.2537 22.006 72.6897 22.126 72.0777 22.126C71.2977 22.126 70.6077 21.964 70.0077 21.64C69.4077 21.304 68.9337 20.818 68.5857 20.182C68.2497 19.534 68.0817 18.766 68.0817 17.878V12.028H70.6017V17.518C70.6017 18.31 70.7997 18.922 71.1957 19.354C71.5917 19.774 72.1317 19.984 72.8157 19.984C73.5117 19.984 74.0577 19.774 74.4537 19.354C74.8497 18.922 75.0477 18.31 75.0477 17.518V12.028H77.5857ZM83.8881 22.162C83.0721 22.162 82.3401 22.018 81.6921 21.73C81.0441 21.43 80.5281 21.028 80.1441 20.524C79.7721 20.02 79.5681 19.462 79.5321 18.85H82.0701C82.1181 19.234 82.3041 19.552 82.6281 19.804C82.9641 20.056 83.3781 20.182 83.8701 20.182C84.3501 20.182 84.7221 20.086 84.9861 19.894C85.2621 19.702 85.4001 19.456 85.4001 19.156C85.4001 18.832 85.2321 18.592 84.8961 18.436C84.5721 18.268 84.0501 18.088 83.3301 17.896C82.5861 17.716 81.9741 17.53 81.4941 17.338C81.0261 17.146 80.6181 16.852 80.2701 16.456C79.9341 16.06 79.7661 15.526 79.7661 14.854C79.7661 14.302 79.9221 13.798 80.2341 13.342C80.5581 12.886 81.0141 12.526 81.6021 12.262C82.2021 11.998 82.9041 11.866 83.7081 11.866C84.8961 11.866 85.8441 12.166 86.5521 12.766C87.2601 13.354 87.6501 14.152 87.7221 15.16H85.3101C85.2741 14.764 85.1061 14.452 84.8061 14.224C84.5181 13.984 84.1281 13.864 83.6361 13.864C83.1801 13.864 82.8261 13.948 82.5741 14.116C82.3341 14.284 82.2141 14.518 82.2141 14.818C82.2141 15.154 82.3821 15.412 82.7181 15.592C83.0541 15.76 83.5761 15.934 84.2841 16.114C85.0041 16.294 85.5981 16.48 86.0661 16.672C86.5341 16.864 86.9361 17.164 87.2721 17.572C87.6201 17.968 87.8001 18.496 87.8121 19.156C87.8121 19.732 87.6501 20.248 87.3261 20.704C87.0141 21.16 86.5581 21.52 85.9581 21.784C85.3701 22.036 84.6801 22.162 83.8881 22.162ZM92.8147 14.098V18.922C92.8147 19.258 92.8927 19.504 93.0487 19.66C93.2167 19.804 93.4927 19.876 93.8767 19.876H95.0467V22H93.4627C91.3387 22 90.2767 20.968 90.2767 18.904V14.098H89.0887V12.028H90.2767V9.562H92.8147V12.028H95.0467V14.098H92.8147ZM96.2112 16.978C96.2112 15.97 96.4092 15.076 96.8052 14.296C97.2132 13.516 97.7592 12.916 98.4432 12.496C99.1392 12.076 99.9132 11.866 100.765 11.866C101.509 11.866 102.157 12.016 102.709 12.316C103.273 12.616 103.723 12.994 104.059 13.45V12.028H106.597V22H104.059V20.542C103.735 21.01 103.285 21.4 102.709 21.712C102.145 22.012 101.491 22.162 100.747 22.162C99.9072 22.162 99.1392 21.946 98.4432 21.514C97.7592 21.082 97.2132 20.476 96.8052 19.696C96.4092 18.904 96.2112 17.998 96.2112 16.978ZM104.059 17.014C104.059 16.402 103.939 15.88 103.699 15.448C103.459 15.004 103.135 14.668 102.727 14.44C102.319 14.2 101.881 14.08 101.413 14.08C100.945 14.08 100.513 14.194 100.117 14.422C99.7212 14.65 99.3972 14.986 99.1452 15.43C98.9052 15.862 98.7852 16.378 98.7852 16.978C98.7852 17.578 98.9052 18.106 99.1452 18.562C99.3972 19.006 99.7212 19.348 100.117 19.588C100.525 19.828 100.957 19.948 101.413 19.948C101.881 19.948 102.319 19.834 102.727 19.606C103.135 19.366 103.459 19.03 103.699 18.598C103.939 18.154 104.059 17.626 104.059 17.014ZM114.962 22L111.578 17.752V22H109.058V8.68H111.578V16.258L114.926 12.028H118.202L113.81 17.032L118.238 22H114.962ZM118.922 16.978C118.922 15.97 119.12 15.076 119.516 14.296C119.924 13.516 120.47 12.916 121.154 12.496C121.85 12.076 122.624 11.866 123.476 11.866C124.22 11.866 124.868 12.016 125.42 12.316C125.984 12.616 126.434 12.994 126.77 13.45V12.028H129.308V22H126.77V20.542C126.446 21.01 125.996 21.4 125.42 21.712C124.856 22.012 124.202 22.162 123.458 22.162C122.618 22.162 121.85 21.946 121.154 21.514C120.47 21.082 119.924 20.476 119.516 19.696C119.12 18.904 118.922 17.998 118.922 16.978ZM126.77 17.014C126.77 16.402 126.65 15.88 126.41 15.448C126.17 15.004 125.846 14.668 125.438 14.44C125.03 14.2 124.592 14.08 124.124 14.08C123.656 14.08 123.224 14.194 122.828 14.422C122.432 14.65 122.108 14.986 121.856 15.43C121.616 15.862 121.496 16.378 121.496 16.978C121.496 17.578 121.616 18.106 121.856 18.562C122.108 19.006 122.432 19.348 122.828 19.588C123.236 19.828 123.668 19.948 124.124 19.948C124.592 19.948 125.03 19.834 125.438 19.606C125.846 19.366 126.17 19.03 126.41 18.598C126.65 18.154 126.77 17.626 126.77 17.014Z" fill="black"/>
<path d="M0.875 2.45519C0.875 2.24569 1.06514 2.08758 1.27113 2.12581L13.1029 4.32131C13.2616 4.35077 13.3768 4.48925 13.3768 4.6507V28.635C13.3768 28.8445 13.1866 29.0026 12.9807 28.9644L1.14889 26.7689C0.99015 26.7395 0.875 26.601 0.875 26.4395V2.45519Z" stroke="#4675EE" stroke-width="1.75"/>
<path d="M29.125 2.45519C29.125 2.24569 28.9349 2.08758 28.7289 2.12581L16.8971 4.32131C16.7384 4.35077 16.6232 4.48925 16.6232 4.6507V28.635C16.6232 28.8445 16.8134 29.0026 17.0193 28.9644L28.8511 26.7689C29.0099 26.7395 29.125 26.601 29.125 26.4395V2.45519Z" stroke="#4675EE" stroke-width="1.75"/>
<path d="M16.8171 3.58248C16.8171 2.59804 16.0195 1.79999 15.0356 1.79999C14.0517 1.79999 13.2542 2.59804 13.2542 3.58248" stroke="#4675EE" stroke-width="1.75"/>
<path d="M16.8171 29.2175C16.8171 30.202 16.0195 31 15.0356 31C14.0517 31 13.2542 30.202 13.2542 29.2175" stroke="#4675EE" stroke-width="1.75"/>
</svg>
